<svg xmlns="http://www.w3.org/2000/svg" viewBox="0 0 64 64" role="img" aria-label="MR InfinityX">
  <rect width="64" height="64" rx="14" fill="#ffffff"/>
  <path d="M51 22.8a6 6 0 0 0-3-5.2L35 10.2a6 6 0 0 0-6 0l-13 7.4a6 6 0 0 0-3 5.2v18.4a6 6 0 0 0 3 5.2l13 7.4a6 6 0 0 0 6 0l13-7.4a6 6 0 0 0 3-5.2Z" fill="none" stroke="#00aa7a" stroke-width="6" stroke-linecap="round" stroke-linejoin="round"/>
  <path d="m14 21 18 11 18-11" fill="none" stroke="#00aa7a" stroke-width="6" stroke-linecap="round" stroke-linejoin="round"/>
  <path d="M32 54V32" fill="none" stroke="#00aa7a" stroke-width="6" stroke-linecap="round" stroke-linejoin="round"/>
</svg>
